Back To The Sea (2012) DVDRip

Screens:
 
http://imageshack.us/a/img822/267/scrncp00019.jpg
 
http://imageshack.us/a/img834/8397/scrncp00021.jpg
 
http://imageshack.us/a/img841/7132/scrncp00025.jpg

[General]
Format: AVI
Format/Info: Audio Video Interleave
File size: 699 MiB
Duration: 1h 37mn
Overall bit rate: 1 003 Kbps

[Video]
Format: xvid
Codec ID: xvid
Duration: 1h 37mn
Bit rate: 862 Kbps
Width: 720 pixels
Height: 304 pixels
Display aspect ratio: 2.35:1
Frame rate: 23.976 fps
Bits/(Pixel*Frame): 0.164
Stream size: 601 MiB (86%)

[Audio]
Format: MPEG Audio
Format version: Version 1
Format profile: Layer 3
Mode: Joint stereo
Mode extension: MS Stereo
Codec ID: 55
Codec ID/Hint: MP3
Duration: 1h 37mn
Bit rate mode: Constant
Bit rate: 128 Kbps
Channel(s): 2 channels
Sampling rate: 48.0 KHz
Compression mode: Lossy
Stream size: 89.3 MiB (13%)
Alignment: Aligned on interleaves
Interleave, duration: 24 ms (0.58 video frame)